PathFileType	4	(X/Y/Z)	/Users/niels/Desktop/University/Third Semester/Perception and Action/Exam/Gymnastics Motion Tracking/Code for Gym Tracking/Analyzed Data/Webcam_Backflip/id1_2_trajectory_Sports2D/id1_2_trajectory_Sports2D_px_person00.trc
DataRate	CameraRate	NumFrames	NumMarkers	Units	OrigDataRate	OrigDataStartFrame	OrigNumFrames
29.87551867219917	29.87551867219917	12	22	m	29.87551867219917	60	241
Frame#	Time	Hip			RHip			RKnee			RAnkle			RBigToe			RSmallToe			RHeel			LHip			LKnee			LAnkle			LBigToe			LSmallToe			LHeel			Neck			Head			Nose			RShoulder			RElbow			RWrist			LShoulder			LElbow			LWrist		
		X1	Y1	Z1	X2	Y2	Z2	X3	Y3	Z3	X4	Y4	Z4	X5	Y5	Z5	X6	Y6	Z6	X7	Y7	Z7	X8	Y8	Z8	X9	Y9	Z9	X10	Y10	Z10	X11	Y11	Z11	X12	Y12	Z12	X13	Y13	Z13	X14	Y14	Z14	X15	Y15	Z15	X16	Y16	Z16	X17	Y17	Z17	X18	Y18	Z18	X19	Y19	Z19	X20	Y20	Z20	X21	Y21	Z21	X22	Y22	Z22
60	2.0083333333333333	0.9846981119936511	-0.33463452810760486	0.0	0.9901067964981464	-0.33769849235522503	0.0	0.9880836547792665	-0.23801574956726743	0.0	1.06155897169464	-0.2855371136543628	0.0	1.0731029496560838	-0.2543838360177559	0.0	1.0789882908317676	-0.2616245489893886	0.0	1.0688744796064966	-0.29899833728004693	0.0	0.9764787709985278	-0.32984015134821915	0.0	0.9797646061204909	-0.2369340721137862	0.0	1.0475547805334349	-0.27809499805570803	0.0	1.05955342295262	-0.2544085105550223	0.0	1.0675732330561187	-0.26109780985460723	0.0	1.0705953881184782	-0.2940829774428863	0.0	0.8608704918594893	-0.3083562476846135	0.0	0.7915553071412402	-0.29738599965988544	0.0	0.824763246733277	-0.2778085793108382	0.0	0.8792465812645119	-0.3052580798624571	0.0	0.9369827815597749	-0.2594469989743616	0.0	0.9619138499240214	-0.19491553232567294	0.0	0.8684235193739347	-0.30818948958687864	0.0	0.9236579497483363	-0.25886916182504077	0.0	0.9519557576949713	-0.2039685062994522	0.0
61	2.0418055555555554	0.9902884147189229	-0.31683024076806976	0.0	0.9959899315338477	-0.31901193027898744	0.0	0.9574015863877395	-0.22242297148573273	0.0	1.045164892101407	-0.24312434338222783	0.0	1.047827732122571	-0.1976672100176008	0.0	1.0550969048830154	-0.2041456700582651	0.0	1.0547857226931998	-0.2531177602549163	0.0	0.9802795782302438	-0.312887875649981	0.0	0.9509056580223828	-0.22206058842762896	0.0	1.0302751061722109	-0.23692470407213642	0.0	1.036947777579487	-0.19909167431423808	0.0	1.045687486901711	-0.20833167704979277	0.0	1.0588894683349015	-0.24844996683416729	0.0	0.8729850598903137	-0.32283610070423846	0.0	0.812588906976647	-0.3268594133028934	0.0	0.837095109339476	-0.3037478922912575	0.0	0.8920653586826802	-0.31606799546921743	0.0	0.9517952842492071	-0.27022652577851347	0.0	0.9746756021336483	-0.20442198855674812	0.0	0.8798597167469218	-0.3214054496090568	0.0	0.9370816048369395	-0.27131632101000147	0.0	0.9656190344523436	-0.21518169118421576	0.0
62	2.075277777777778	0.992613911295955	-0.29936700243648934	0.0	0.9987011657968385	-0.3008652853031405	0.0	0.9286145282630219	-0.21862268355862033	0.0	1.0217272588981343	-0.211477166856987	0.0	1.0155334364901685	-0.1585013015647138	0.0	1.023708438634807	-0.1626048391357207	0.0	1.0320878018987392	-0.2166242603337872	0.0	0.9819014997471195	-0.29717246378070766	0.0	0.924291140194413	-0.21846316028862572	0.0	1.0077805041533168	-0.20660454328227024	0.0	1.007600667788883	-0.15992162444052985	0.0	1.0162463932346386	-0.170658898063602	0.0	1.0377669332365287	-0.21236958910590564	0.0	0.8914106713172301	-0.34020787463282326	0.0	0.8436716039455374	-0.3614015238220278	0.0	0.8574817547670056	-0.33569181295513584	0.0	0.9089252767273107	-0.32893302741172553	0.0	0.9636439008355282	-0.2789875109598939	0.0	0.9792256091263852	-0.21155402633532505	0.0	0.8966794333078402	-0.33673733783846577	0.0	0.9492884882367064	-0.2822637448698885	0.0	0.971938916941478	-0.22532378954087318	0.0
63	2.10875	0.9912635744386218	-0.2835670923221421	0.0	0.9976703827914635	-0.28467647545575886	0.0	0.9039221744729364	-0.2246499337783524	0.0	0.9937756370172353	-0.1904849237212286	0.0	0.9807577566209238	-0.13698541481370272	0.0	0.9893609079121279	-0.137687467560175	0.0	1.0037075710516619	-0.19004154204524668	0.0	0.9810375908102514	-0.2836485233558613	0.0	0.9019155810402204	-0.2243265811628883	0.0	0.9829392926386191	-0.1868416255854436	0.0	0.9751283561677295	-0.13716607478621148	0.0	0.9830975805115636	-0.14811528716374062	0.0	1.0103693608844733	-0.18636826037676232	0.0	0.9152670093263774	-0.35848937886740573	0.0	0.8832282098129101	-0.39695346268693904	0.0	0.885498784603894	-0.3701778557271368	0.0	0.9292048037911407	-0.3424350927497393	0.0	0.9730101207830655	-0.28543173220160967	0.0	0.9772122014521698	-0.2169200696864933	0.0	0.9181946033794739	-0.352552627782667	0.0	0.9607239092735316	-0.291100577869354	0.0	0.9721004333168533	-0.23468022126135724	0.0
64	2.1422222222222222	0.9870046651479569	-0.2710864157410952	0.0	0.9933378345272917	-0.27202612109280194	0.0	0.8845569535220547	-0.23874876408334814	0.0	0.9625519666680359	-0.18046216498452672	0.0	0.9448993128632801	-0.1323238466153287	0.0	0.9534589754673135	-0.12942753175767835	0.0	0.9712565240890175	-0.1742309008093486	0.0	0.9783379682741332	-0.27360141221718143	0.0	0.8849218448487164	-0.23808377771018727	0.0	0.9567955692324354	-0.17794435354357413	0.0	0.9408148982587055	-0.1309389582851428	0.0	0.9476668204825683	-0.14112376890506	0.0	0.979000879087438	-0.1714058793625487	0.0	0.9426692451573393	-0.375662160675847	0.0	0.9282168838336259	-0.42907005183489294	0.0	0.9194198127310597	-0.403127446002618	0.0	0.9517629795995906	-0.3552323557448782	0.0	0.9803946991380286	-0.29028964833887805	0.0	0.9707807140792152	-0.22234954888021716	0.0	0.9429113634059134	-0.367202149062321	0.0	0.9714771009073396	-0.29791708875020545	0.0	0.9681602062595653	-0.243853682533244	0.0
65	2.1756944444444444	0.9811309387292091	-0.26370920705879386	0.0	0.9866723328758682	-0.26460388179077793	0.0	0.8713272321080441	-0.25975040565421276	0.0	0.9286031359743652	-0.1830974009452181	0.0	0.9078988028685492	-0.14490397193687415	0.0	0.9157946926685921	-0.13899860267331868	0.0	0.9354027537513063	-0.17128562511160927	0.0	0.9748498943679386	-0.26839556800004666	0.0	0.8740562695364841	-0.2587297242782623	0.0	0.9291572331039257	-0.181540862652611	0.0	0.9048471938037558	-0.14269498167762756	0.0	0.9103279748490868	-0.15156716375923485	0.0	0.9448799605398808	-0.16950185790232677	0.0	0.9714071775222928	-0.3900478009347818	0.0	0.97507893727365	-0.45391002767149413	0.0	0.9568183177161987	-0.4308679205827034	0.0	0.9751915397794596	-0.3663440534318621	0.0	0.9860481375206305	-0.2948031088426491	0.0	0.9617754464598948	-0.23018985543074502	0.0	0.9690697340074258	-0.3793454948426675	0.0	0.9812655393715284	-0.30331092283863526	0.0	0.9622037571350589	-0.2536852312083049	0.0
66	2.2091666666666665	0.9748760240698875	-0.26284726184562823	0.0	0.9788352278293978	-0.26382569753508417	0.0	0.8646227439137062	-0.2866107299822988	0.0	0.8930565866125161	-0.2008544668566995	0.0	0.8705844978155004	-0.1763174168787645	0.0	0.8769212413275462	-0.16843054538191884	0.0	0.8971156148267798	-0.1840295504417059	0.0	0.9714456312029887	-0.2689795894157543	0.0	0.8695040141173148	-0.28535859801409574	0.0	0.8997659803620919	-0.19983753234454413	0.0	0.8683088808154533	-0.17458417959653225	0.0	0.8725142406956867	-0.18163715075173748	0.0	0.9087484187702065	-0.18302448651444894	0.0	0.9993664884881145	-0.4007667945022775	0.0	1.0202712585975553	-0.4694981177453569	0.0	0.9947699916557753	-0.4512361655675563	0.0	0.9979721911079352	-0.37544240496622433	0.0	0.9899542450737571	-0.3003027009394519	0.0	0.9515438287360435	-0.24257090727507705	0.0	0.994917406641867	-0.388350801295097	0.0	0.9895598775298775	-0.30834784287500366	0.0	0.9558442762500805	-0.26531631924205806	0.0
67	2.242638888888889	0.9689426505848217	-0.26906911752897295	0.0	0.9708753478382723	-0.270341966172233	0.0	0.864069727248551	-0.31789914205148784	0.0	0.8586288328263737	-0.23528707357489256	0.0	0.8358929498015114	-0.22757623541966487	0.0	0.8396672140238343	-0.2186859331380664	0.0	0.858853668674209	-0.21461261281174426	0.0	0.9683539992728243	-0.2756318334604465	0.0	0.8704650726989485	-0.3166456552015357	0.0	0.8694578328833217	-0.2342217358975542	0.0	0.8343222499844113	-0.22721264996215096	0.0	0.8376094726629254	-0.2315721885382326	0.0	0.8718966300661662	-0.213572586352555	0.0	1.0247230555501414	-0.4080595042252584	0.0	1.0606733944875475	-0.47643733381713	0.0	1.0301156080298186	-0.4641656098759653	0.0	1.0186875296574345	-0.3829148454338883	0.0	0.9920435007810278	-0.3079632868066976	0.0	0.9411785683049455	-0.2607984447809531	0.0	1.0187754493892631	-0.39447526983525577	0.0	0.9957615255734051	-0.314403887079935	0.0	0.9501186336461912	-0.28010827269203237	0.0
68	2.276111111111111	0.9633741851304358	-0.2821770206048783	0.0	0.9634442763003487	-0.2839250656093813	0.0	0.8685261053119269	-0.352061222742095	0.0	0.8296385137405453	-0.28573296053288033	0.0	0.8088075178929557	-0.2970098417833465	0.0	0.8093223929592291	-0.28776413384680555	0.0	0.8250599238803572	-0.26334295533136454	0.0	0.9651280877044065	-0.2882290619363924	0.0	0.8753604432108687	-0.35103818550551397	0.0	0.8413771872161275	-0.2844067858505795	0.0	0.8080165546640427	-0.2978259097675191	0.0	0.8105383109227776	-0.2986190795967298	0.0	0.8376265049266223	-0.26151531113095217	0.0	1.0460985887941996	-0.4131337323017258	0.0	1.094141209651534	-0.4773221367483527	0.0	1.060220264607888	-0.4713257857498267	0.0	1.0363082326734123	-0.38961886817852687	0.0	0.9924672497972515	-0.3187338036955622	0.0	0.9319230504284667	-0.2852724186706816	0.0	1.039190302981619	-0.3986913480626135	0.0	0.9994212341911762	-0.3228593970417733	0.0	0.945648916747044	-0.2994224825544147	0.0
69	2.3095833333333333	0.9579288509421782	-0.30171720829308696	0.0	0.9567735561875492	-0.30388640643655507	0.0	0.8766267854906802	-0.3881718042672104	0.0	0.8110026541896137	-0.3494125930352629	0.0	0.7952603702753116	-0.37920814945787673	0.0	0.792380933286141	-0.3700544443069455	0.0	0.8014849210349947	-0.32824081631773583	0.0	0.9611643428552353	-0.30663940065722994	0.0	0.8826319701191361	-0.38740066484883057	0.0	0.8210363442723363	-0.34807479289404875	0.0	0.7954287149221921	-0.38021120588690654	0.0	0.7968196963605269	-0.37737552461248164	0.0	0.8117340193697874	-0.3255397908208126	0.0	1.0626429687928647	-0.41767713584445976	0.0	1.1197999282762745	-0.4754439508088534	0.0	1.0836416738448673	-0.4752392892364606	0.0	1.0502338427171416	-0.39659508595767673	0.0	0.9917209015492758	-0.3332651916380941	0.0	0.9255316265079324	-0.3158506941343848	0.0	1.0551546566471979	-0.4024577710703353	0.0	1.000535406112376	-0.3349114236838961	0.0	0.9430668069020892	-0.32447672620849377	0.0
70	2.3430555555555554	0.9524274196144186	-0.32747760769263684	0.0	0.9508249169083566	-0.3297780826794453	0.0	0.8874000060641567	-0.42636567540816517	0.0	0.8064924026555952	-0.42228534011774616	0.0	0.7994962344592653	-0.4662309127223362	0.0	0.7936011319473785	-0.4576978307746733	0.0	0.7930191456267416	-0.4052304564291312	0.0	0.9561393979862008	-0.3309529328620833	0.0	0.8912976204971504	-0.4255436057776925	0.0	0.8137794238811752	-0.4209665841711625	0.0	0.800894247019662	-0.4665254257549634	0.0	0.8004804817681763	-0.4609069320130424	0.0	0.8001428931107679	-0.4019883226987781	0.0	1.0739741751513683	-0.42340709192330855	0.0	1.1377757123201624	-0.4737700865545637	0.0	1.100112455697785	-0.47844727764386547	0.0	1.0600998784622901	-0.404888203536127	0.0	0.9904788805749294	-0.3517386778664046	0.0	0.9241497012637386	-0.3518932229377043	0.0	1.0661510378464132	-0.40753579473301554	0.0	0.999651367286398	-0.3515905405687616	0.0	0.9432901464421083	-0.3562103219657054	0.0
71	2.376527777777778	0.9468364627687226	-0.35970345771327517	0.0	0.9455352626427366	-0.3618265662396409	0.0	0.9003916289168528	-0.46749390913843386	0.0	0.8169493652951625	-0.49967336801710105	0.0	0.8212466696891081	-0.550639923323031	0.0	0.8130671876898433	-0.5434108055238596	0.0	0.8012052030819258	-0.4888638520257653	0.0	0.9501075223501789	-0.36161572614200715	0.0	0.9009808707951884	-0.46625810633722814	0.0	0.8215676696612956	-0.49798524721708914	0.0	0.8241820178514315	-0.5499727415211544	0.0	0.82143405748708	-0.5428298527955174	0.0	0.8053953466854745	-0.48537540726732775	0.0	1.0800132695007385	-0.4317312457101665	0.0	1.1486787303926347	-0.47440188421686325	0.0	1.1100388953525462	-0.4829244073378132	0.0	1.065670518963734	-0.41538904773669927	0.0	0.9892439168158241	-0.37390165059197955	0.0	0.9295749310997043	-0.3917998886454805	0.0	1.0719181347078395	-0.41566621980207824	0.0	0.9975720299174101	-0.37388403335372494	0.0	0.9473206601600502	-0.3949131150802986	0.0
